<svg width="504" height="386" viewBox="0 0 504 386" fill="none" xmlns="http://www.w3.org/2000/svg">
<path d="M497 210L329 378C314 393 288 382.5 288 361V265H152C138.7 265 128 254.3 128 241V145C128 131.7 138.7 121 152 121H288V25C288 3.6 313.9 -7 329 8L497 176C506.3 185.4 506.3 200.6 497 210ZM192 373V333C192 326.4 186.6 321 180 321H96C78.3 321 64 306.7 64 289V97C64 79.3 78.3 65 96 65H180C186.6 65 192 59.6 192 53V13C192 6.4 186.6 0.999998 180 0.999998H96C43 0.999998 0 44 0 97V289C0 342 43 385 96 385H180C186.6 385 192 379.6 192 373Z" fill="white"/>
</svg>
